<svg xmlns="http://www.w3.org/2000/svg" viewBox="0 0 90 90"><defs><style>.cls-1{fill:#9cc925;}.cls-2{fill:#7ba60d;}.cls-3{fill:#87613e;}.cls-4{fill:#a67c52;}</style></defs><title>green-plant</title><g id="green-plant"><path class="cls-1" d="M36.42,43.61h0a7.23,7.23,0,0,0,7.22-7.24c0-10.81-19.85-12.69-19.85-12.69S23.79,43.61,36.42,43.61Z"/><path class="cls-2" d="M44.59,5a2.38,2.38,0,0,0-2.37,2.38V51A2.37,2.37,0,1,0,47,51V7.38A2.38,2.38,0,0,0,44.59,5Z"/><path class="cls-3" d="M61.26,85H28.73a2,2,0,0,1-2-1.45L20.32,57.38H69.68L63.3,83.55A2,2,0,0,1,61.26,85Z"/><path class="cls-1" d="M53.82,30.08h0A8.87,8.87,0,0,1,45,21.19C45,8,69.31,5.64,69.31,5.64S69.31,30.08,53.82,30.08Z"/><path class="cls-4" d="M72.08,57.38H17.92a2,2,0,0,1-2.08-1.83V51.32a2,2,0,0,1,2.08-1.83H72.08a2,2,0,0,1,2.08,1.83v4.23A2,2,0,0,1,72.08,57.38Z"/></g></svg>